<?xml version="1.0" encoding="UTF-8"?>
<svg id="_圖層_2" data-name="圖層 2" xmlns="http://www.w3.org/2000/svg" viewBox="0 0 125.57 59.02">
  <defs>
    <style>
      .cls-1 {
        fill: none;
        stroke: #2f4aad;
      }

      .cls-2 {
        fill: #3e62e6;
      }
    </style>
  </defs>
  <g id="_圖層_7" data-name="圖層 7">
    <g>
      <g>
        <path class="cls-2" d="M53.6,36.01c-.32,4.02-.57,7.78-.89,10.77h5.42v5.1h-5.99c-1.21,6.56-3.57,7.14-9.05,7.14h-7.01v-5.42h6.31c2.42,0,3.57-.13,4.27-1.72h-30.27c.7-3.82,1.53-9.75,2.17-15.87h-5.04c-1.4,6.12-4.65,16.51-7.71,21.93H0c3.44-6.25,7.2-17.85,8.48-23.39h4.84v-3.63h5.8c.51-5.23.89-10.26,1.02-13.96-1.91,1.98-3.89,3.76-6.12,5.16v-7.01c4.46-3.19,8.29-8.6,10.39-15.11h5.67c-.45,1.59-1.08,3.19-1.72,4.65h30.66v5.16H25.69c-1.15,1.91-2.42,3.76-3.89,5.42h32.7c0,3.57-.25,9.56-.57,15.68h5.23v5.1h-5.54ZM.64,6.12V.32l12.81,6.37v6.12L.64,6.12ZM.64,22.31v-5.86l12.81,6.37v6.05L.64,22.31ZM23.58,36.01c-.38,3.89-.89,7.52-1.34,10.77h10.26c.38-3.31.76-7.01,1.02-10.77h-9.94ZM24.98,20.08c-.19,3.19-.51,6.95-.89,10.83h9.75c.25-4.02.45-7.84.51-10.83h-9.37ZM38.11,36.01c-.32,3.82-.64,7.52-1.02,10.77h10.64c.32-2.68.64-6.5.96-10.77h-10.58ZM39.07,20.08c-.13,3.06-.32,6.82-.57,10.83h10.45c.25-3.82.38-7.58.51-10.83h-10.39Z"/>
        <path class="cls-2" d="M117.98,58h-12.24c-3.19,0-4.84-1.53-4.84-4.72v-8.03h-8.8c-2.74,8.16-9.69,13.13-24.86,13.64v-4.91c11.98-.51,16.63-3.51,18.74-8.73h-14.28v-18.48h.32c6.95,0,18.17-.83,22.82-2.29v3.95c-3.44,1.02-11.15,1.85-17.72,2.1v3.44h17.21v3.44h-17.21v4.14h39.01v-4.14h-16.83v-3.44h16.83v-4.02h-16.83v-3.82h22.37v18.36h3.82v7.33c0,4.84-2.8,6.18-7.52,6.18ZM120.28,22.05v-10.77h-20.78v12.36h-5.29v-12.36h-20.97v10.77h-5.23V7.65h26.2v-2.74h-24.09V1.08h53.41v3.82h-24.03v2.74h26.07v14.4h-5.29ZM75.41,16.76v-2.74h15.55v2.74h-15.55ZM75.41,22.5v-2.8h15.55v2.8h-15.55ZM102.94,16.76v-2.74h15.42v2.74h-15.42ZM102.94,22.5v-2.8h15.42v2.8h-15.42ZM120.41,45.25h-14.09v6.69c0,1.08.51,1.47,1.66,1.47h8.67c2.49,0,3.76-.38,3.76-2.87v-5.29Z"/>
      </g>
      <g>
        <g>
          <path class="cls-2" d="M53.6,36.01c-.32,4.02-.57,7.78-.89,10.77h5.42v5.1h-5.99c-1.21,6.56-3.57,7.14-9.05,7.14h-7.01v-5.42h6.31c2.42,0,3.57-.13,4.27-1.72h-30.27c.7-3.82,1.53-9.75,2.17-15.87h-5.04c-1.4,6.12-4.65,16.51-7.71,21.93H0c3.44-6.25,7.2-17.85,8.48-23.39h4.84v-3.63h5.8c.51-5.23.89-10.26,1.02-13.96-1.91,1.98-3.89,3.76-6.12,5.16v-7.01c4.46-3.19,8.29-8.6,10.39-15.11h5.67c-.45,1.59-1.08,3.19-1.72,4.65h30.66v5.16H25.69c-1.15,1.91-2.42,3.76-3.89,5.42h32.7c0,3.57-.25,9.56-.57,15.68h5.23v5.1h-5.54ZM.64,6.12V.32l12.81,6.37v6.12L.64,6.12ZM.64,22.31v-5.86l12.81,6.37v6.05L.64,22.31ZM23.58,36.01c-.38,3.89-.89,7.52-1.34,10.77h10.26c.38-3.31.76-7.01,1.02-10.77h-9.94ZM24.98,20.08c-.19,3.19-.51,6.95-.89,10.83h9.75c.25-4.02.45-7.84.51-10.83h-9.37ZM38.11,36.01c-.32,3.82-.64,7.52-1.02,10.77h10.64c.32-2.68.64-6.5.96-10.77h-10.58ZM39.07,20.08c-.13,3.06-.32,6.82-.57,10.83h10.45c.25-3.82.38-7.58.51-10.83h-10.39Z"/>
          <path class="cls-2" d="M53.6,36.01c-.32,4.02-.57,7.78-.89,10.77h5.42v5.1h-5.99c-1.21,6.56-3.57,7.14-9.05,7.14h-7.01v-5.42h6.31c2.42,0,3.57-.13,4.27-1.72h-30.27c.7-3.82,1.53-9.75,2.17-15.87h-5.04c-1.4,6.12-4.65,16.51-7.71,21.93H0c3.44-6.25,7.2-17.85,8.48-23.39h4.84v-3.63h5.8c.51-5.23.89-10.26,1.02-13.96-1.91,1.98-3.89,3.76-6.12,5.16v-7.01c4.46-3.19,8.29-8.6,10.39-15.11h5.67c-.45,1.59-1.08,3.19-1.72,4.65h30.66v5.16H25.69c-1.15,1.91-2.42,3.76-3.89,5.42h32.7c0,3.57-.25,9.56-.57,15.68h5.23v5.1h-5.54ZM.64,6.12V.32l12.81,6.37v6.12L.64,6.12ZM.64,22.31v-5.86l12.81,6.37v6.05L.64,22.31ZM23.58,36.01c-.38,3.89-.89,7.52-1.34,10.77h10.26c.38-3.31.76-7.01,1.02-10.77h-9.94ZM24.98,20.08c-.19,3.19-.51,6.95-.89,10.83h9.75c.25-4.02.45-7.84.51-10.83h-9.37ZM38.11,36.01c-.32,3.82-.64,7.52-1.02,10.77h10.64c.32-2.68.64-6.5.96-10.77h-10.58ZM39.07,20.08c-.13,3.06-.32,6.82-.57,10.83h10.45c.25-3.82.38-7.58.51-10.83h-10.39Z"/>
        </g>
        <g>
          <path class="cls-2" d="M117.98,58h-12.24c-3.19,0-4.84-1.53-4.84-4.72v-8.03h-8.8c-2.74,8.16-9.69,13.13-24.86,13.64v-4.91c11.98-.51,16.63-3.51,18.74-8.73h-14.28v-18.48h.32c6.95,0,18.17-.83,22.82-2.29v3.95c-3.44,1.02-11.15,1.85-17.72,2.1v3.44h17.21v3.44h-17.21v4.14h39.01v-4.14h-16.83v-3.44h16.83v-4.02h-16.83v-3.82h22.37v18.36h3.82v7.33c0,4.84-2.8,6.18-7.52,6.18ZM120.28,22.05v-10.77h-20.78v12.36h-5.29v-12.36h-20.97v10.77h-5.23V7.65h26.2v-2.74h-24.09V1.08h53.41v3.82h-24.03v2.74h26.07v14.4h-5.29ZM75.41,16.76v-2.74h15.55v2.74h-15.55ZM75.41,22.5v-2.8h15.55v2.8h-15.55ZM102.94,16.76v-2.74h15.42v2.74h-15.42ZM102.94,22.5v-2.8h15.42v2.8h-15.42ZM120.41,45.25h-14.09v6.69c0,1.08.51,1.47,1.66,1.47h8.67c2.49,0,3.76-.38,3.76-2.87v-5.29Z"/>
          <path class="cls-2" d="M117.98,58h-12.24c-3.19,0-4.84-1.53-4.84-4.72v-8.03h-8.8c-2.74,8.16-9.69,13.13-24.86,13.64v-4.91c11.98-.51,16.63-3.51,18.74-8.73h-14.28v-18.48h.32c6.95,0,18.17-.83,22.82-2.29v3.95c-3.44,1.02-11.15,1.85-17.72,2.1v3.44h17.21v3.44h-17.21v4.14h39.01v-4.14h-16.83v-3.44h16.83v-4.02h-16.83v-3.82h22.37v18.36h3.82v7.33c0,4.84-2.8,6.18-7.52,6.18ZM120.28,22.05v-10.77h-20.78v12.36h-5.29v-12.36h-20.97v10.77h-5.23V7.65h26.2v-2.74h-24.09V1.08h53.41v3.82h-24.03v2.74h26.07v14.4h-5.29ZM75.41,16.76v-2.74h15.55v2.74h-15.55ZM75.41,22.5v-2.8h15.55v2.8h-15.55ZM102.94,16.76v-2.74h15.42v2.74h-15.42ZM102.94,22.5v-2.8h15.42v2.8h-15.42ZM120.41,45.25h-14.09v6.69c0,1.08.51,1.47,1.66,1.47h8.67c2.49,0,3.76-.38,3.76-2.87v-5.29Z"/>
        </g>
      </g>
      <g>
        <g>
          <path class="cls-1" d="M53.6,36.01c-.32,4.02-.57,7.78-.89,10.77h5.42v5.1h-5.99c-1.21,6.56-3.57,7.14-9.05,7.14h-7.01v-5.42h6.31c2.42,0,3.57-.13,4.27-1.72h-30.27c.7-3.82,1.53-9.75,2.17-15.87h-5.04c-1.4,6.12-4.65,16.51-7.71,21.93H0c3.44-6.25,7.2-17.85,8.48-23.39h4.84v-3.63h5.8c.51-5.23.89-10.26,1.02-13.96-1.91,1.98-3.89,3.76-6.12,5.16v-7.01c4.46-3.19,8.29-8.6,10.39-15.11h5.67c-.45,1.59-1.08,3.19-1.72,4.65h30.66v5.16H25.69c-1.15,1.91-2.42,3.76-3.89,5.42h32.7c0,3.57-.25,9.56-.57,15.68h5.23v5.1h-5.54ZM.64,6.12V.32l12.81,6.37v6.12L.64,6.12ZM.64,22.31v-5.86l12.81,6.37v6.05L.64,22.31ZM23.58,36.01c-.38,3.89-.89,7.52-1.34,10.77h10.26c.38-3.31.76-7.01,1.02-10.77h-9.94ZM24.98,20.08c-.19,3.19-.51,6.95-.89,10.83h9.75c.25-4.02.45-7.84.51-10.83h-9.37ZM38.11,36.01c-.32,3.82-.64,7.52-1.02,10.77h10.64c.32-2.68.64-6.5.96-10.77h-10.58ZM39.07,20.08c-.13,3.06-.32,6.82-.57,10.83h10.45c.25-3.82.38-7.58.51-10.83h-10.39Z"/>
          <path class="cls-1" d="M53.6,36.01c-.32,4.02-.57,7.78-.89,10.77h5.42v5.1h-5.99c-1.21,6.56-3.57,7.14-9.05,7.14h-7.01v-5.42h6.31c2.42,0,3.57-.13,4.27-1.72h-30.27c.7-3.82,1.53-9.75,2.17-15.87h-5.04c-1.4,6.12-4.65,16.51-7.71,21.93H0c3.44-6.25,7.2-17.85,8.48-23.39h4.84v-3.63h5.8c.51-5.23.89-10.26,1.02-13.96-1.91,1.98-3.89,3.76-6.12,5.16v-7.01c4.46-3.19,8.29-8.6,10.39-15.11h5.67c-.45,1.59-1.08,3.19-1.72,4.65h30.66v5.16H25.69c-1.15,1.91-2.42,3.76-3.89,5.42h32.7c0,3.57-.25,9.56-.57,15.68h5.23v5.1h-5.54ZM.64,6.12V.32l12.81,6.37v6.12L.64,6.12ZM.64,22.31v-5.86l12.81,6.37v6.05L.64,22.31ZM23.58,36.01c-.38,3.89-.89,7.52-1.34,10.77h10.26c.38-3.31.76-7.01,1.02-10.77h-9.94ZM24.98,20.08c-.19,3.19-.51,6.95-.89,10.83h9.75c.25-4.02.45-7.84.51-10.83h-9.37ZM38.11,36.01c-.32,3.82-.64,7.52-1.02,10.77h10.64c.32-2.68.64-6.5.96-10.77h-10.58ZM39.07,20.08c-.13,3.06-.32,6.82-.57,10.83h10.45c.25-3.82.38-7.58.51-10.83h-10.39Z"/>
        </g>
        <g>
          <path class="cls-1" d="M117.98,58h-12.24c-3.19,0-4.84-1.53-4.84-4.72v-8.03h-8.8c-2.74,8.16-9.69,13.13-24.86,13.64v-4.91c11.98-.51,16.63-3.51,18.74-8.73h-14.28v-18.48h.32c6.95,0,18.17-.83,22.82-2.29v3.95c-3.44,1.02-11.15,1.85-17.72,2.1v3.44h17.21v3.44h-17.21v4.14h39.01v-4.14h-16.83v-3.44h16.83v-4.02h-16.83v-3.82h22.37v18.36h3.82v7.33c0,4.84-2.8,6.18-7.52,6.18ZM120.28,22.05v-10.77h-20.78v12.36h-5.29v-12.36h-20.97v10.77h-5.23V7.65h26.2v-2.74h-24.09V1.08h53.41v3.82h-24.03v2.74h26.07v14.4h-5.29ZM75.41,16.76v-2.74h15.55v2.74h-15.55ZM75.41,22.5v-2.8h15.55v2.8h-15.55ZM102.94,16.76v-2.74h15.42v2.74h-15.42ZM102.94,22.5v-2.8h15.42v2.8h-15.42ZM120.41,45.25h-14.09v6.69c0,1.08.51,1.47,1.66,1.47h8.67c2.49,0,3.76-.38,3.76-2.87v-5.29Z"/>
          <path class="cls-1" d="M117.98,58h-12.24c-3.19,0-4.84-1.53-4.84-4.72v-8.03h-8.8c-2.74,8.16-9.69,13.13-24.86,13.64v-4.91c11.98-.51,16.63-3.51,18.74-8.73h-14.28v-18.48h.32c6.95,0,18.17-.83,22.82-2.29v3.95c-3.44,1.02-11.15,1.85-17.72,2.1v3.44h17.21v3.44h-17.21v4.14h39.01v-4.14h-16.83v-3.44h16.83v-4.02h-16.83v-3.82h22.37v18.36h3.82v7.33c0,4.84-2.8,6.18-7.52,6.18ZM120.28,22.05v-10.77h-20.78v12.36h-5.29v-12.36h-20.97v10.77h-5.23V7.65h26.2v-2.74h-24.09V1.08h53.41v3.82h-24.03v2.74h26.07v14.4h-5.29ZM75.41,16.76v-2.74h15.55v2.74h-15.55ZM75.41,22.5v-2.8h15.55v2.8h-15.55ZM102.94,16.76v-2.74h15.42v2.74h-15.42ZM102.94,22.5v-2.8h15.42v2.8h-15.42ZM120.41,45.25h-14.09v6.69c0,1.08.51,1.47,1.66,1.47h8.67c2.49,0,3.76-.38,3.76-2.87v-5.29Z"/>
        </g>
      </g>
    </g>
  </g>
</svg>