<?xml version="1.0" encoding="UTF-8"?>
<svg id="_圖層_2" data-name="圖層 2" xmlns="http://www.w3.org/2000/svg" viewBox="0 0 131.65 35.68">
  <defs>
    <style>
      .cls-1 {
        fill: none;
        stroke: #2f4aad;
      }

      .cls-2 {
        fill: #3e62e6;
      }
    </style>
  </defs>
  <g id="_圖層_17" data-name="圖層 17">
    <g>
      <g>
        <polygon class="cls-2" points="22.98 34.68 22.98 21.04 7.46 21.04 7.46 34.68 1 34.68 1 2.15 7.46 2.15 7.46 15.73 22.98 15.73 22.98 2.15 29.38 2.15 29.38 34.68 22.98 34.68"/>
        <path class="cls-2" d="M60.81,34.68l-1.73-3.57h-14.9l-1.67,3.57h-6.88L51.5,1h.23l15.97,33.68h-6.88ZM45.91,27.07h11.23l-4.88-10.75h-1.4l-4.95,10.75Z"/>
        <rect class="cls-2" x="73.96" y="2.15" width="6.46" height="32.52"/>
        <polygon class="cls-2" points="109.41 34.68 94.4 11.78 94.4 34.68 87.94 34.68 87.94 2.15 95.32 2.15 110.27 24.99 110.27 2.15 116.67 2.15 116.67 34.68 109.41 34.68"/>
        <rect class="cls-2" x="124.19" y="2.15" width="6.46" height="32.52"/>
      </g>
      <g>
        <g>
          <polygon class="cls-2" points="22.98 34.68 22.98 21.04 7.46 21.04 7.46 34.68 1 34.68 1 2.15 7.46 2.15 7.46 15.73 22.98 15.73 22.98 2.15 29.38 2.15 29.38 34.68 22.98 34.68"/>
          <polygon class="cls-2" points="22.98 34.68 22.98 21.04 7.46 21.04 7.46 34.68 1 34.68 1 2.15 7.46 2.15 7.46 15.73 22.98 15.73 22.98 2.15 29.38 2.15 29.38 34.68 22.98 34.68"/>
        </g>
        <g>
          <path class="cls-2" d="M60.81,34.68l-1.73-3.57h-14.9l-1.67,3.57h-6.88L51.5,1h.23l15.97,33.68h-6.88ZM45.91,27.07h11.23l-4.88-10.75h-1.4l-4.95,10.75Z"/>
          <path class="cls-2" d="M60.81,34.68l-1.73-3.57h-14.9l-1.67,3.57h-6.88L51.5,1h.23l15.97,33.68h-6.88ZM45.91,27.07h11.23l-4.88-10.75h-1.4l-4.95,10.75Z"/>
        </g>
        <g>
          <rect class="cls-2" x="73.96" y="2.15" width="6.46" height="32.52"/>
          <rect class="cls-2" x="73.96" y="2.15" width="6.46" height="32.52"/>
        </g>
        <g>
          <polygon class="cls-2" points="109.41 34.68 94.4 11.78 94.4 34.68 87.94 34.68 87.94 2.15 95.32 2.15 110.27 24.99 110.27 2.15 116.67 2.15 116.67 34.68 109.41 34.68"/>
          <polygon class="cls-2" points="109.41 34.68 94.4 11.78 94.4 34.68 87.94 34.68 87.94 2.15 95.32 2.15 110.27 24.99 110.27 2.15 116.67 2.15 116.67 34.68 109.41 34.68"/>
        </g>
        <g>
          <rect class="cls-2" x="124.19" y="2.15" width="6.46" height="32.52"/>
          <rect class="cls-2" x="124.19" y="2.15" width="6.46" height="32.52"/>
        </g>
      </g>
      <g>
        <g>
          <polygon class="cls-1" points="22.98 34.68 22.98 21.04 7.46 21.04 7.46 34.68 1 34.68 1 2.15 7.46 2.15 7.46 15.73 22.98 15.73 22.98 2.15 29.38 2.15 29.38 34.68 22.98 34.68"/>
          <polygon class="cls-1" points="22.98 34.68 22.98 21.04 7.46 21.04 7.46 34.68 1 34.68 1 2.15 7.46 2.15 7.46 15.73 22.98 15.73 22.98 2.15 29.38 2.15 29.38 34.68 22.98 34.68"/>
        </g>
        <g>
          <path class="cls-1" d="M60.81,34.68l-1.73-3.57h-14.9l-1.67,3.57h-6.88L51.5,1h.23l15.97,33.68h-6.88ZM45.91,27.07h11.23l-4.88-10.75h-1.4l-4.95,10.75Z"/>
          <path class="cls-1" d="M60.81,34.68l-1.73-3.57h-14.9l-1.67,3.57h-6.88L51.5,1h.23l15.97,33.68h-6.88ZM45.91,27.07h11.23l-4.88-10.75h-1.4l-4.95,10.75Z"/>
        </g>
        <g>
          <rect class="cls-1" x="73.96" y="2.15" width="6.46" height="32.52"/>
          <rect class="cls-1" x="73.96" y="2.15" width="6.46" height="32.52"/>
        </g>
        <g>
          <polygon class="cls-1" points="109.41 34.68 94.4 11.78 94.4 34.68 87.94 34.68 87.94 2.15 95.32 2.15 110.27 24.99 110.27 2.15 116.67 2.15 116.67 34.68 109.41 34.68"/>
          <polygon class="cls-1" points="109.41 34.68 94.4 11.78 94.4 34.68 87.94 34.68 87.94 2.15 95.32 2.15 110.27 24.99 110.27 2.15 116.67 2.15 116.67 34.68 109.41 34.68"/>
        </g>
        <g>
          <rect class="cls-1" x="124.19" y="2.15" width="6.46" height="32.52"/>
          <rect class="cls-1" x="124.19" y="2.15" width="6.46" height="32.52"/>
        </g>
      </g>
    </g>
  </g>
</svg>