<?xml version="1.0" encoding="UTF-8"?>
<svg id="_圖層_2" data-name="圖層 2" xmlns="http://www.w3.org/2000/svg" viewBox="0 0 84.31 10.04">
  <defs>
    <style>
      .cls-1 {
        fill: #3e62e6;
      }
    </style>
  </defs>
  <g id="_圖層_18" data-name="圖層 18">
    <g>
      <path class="cls-1" d="M8.81,3.8c-.08.09-.13.2-.15.32-.03.12-.04.26-.04.42v2.21c0,.46-.09.9-.26,1.3s-.44.76-.8,1.05c-.35.3-.8.53-1.33.69-.54.16-1.16.25-1.89.25-.61,0-1.17-.07-1.7-.21-.53-.14-.99-.35-1.39-.63-.4-.28-.7-.64-.92-1.06s-.33-.93-.33-1.51v-1.82c0-.57.07-1.07.22-1.49s.37-.77.66-1.05.65-.49,1.07-.63c.42-.14.9-.21,1.44-.21.45,0,.86.03,1.22.1s.68.18.94.33c.27.15.47.35.62.59s.23.55.25.91h.8l-.24,1.06h-.52v3.66c-.21.02-.4.03-.58.04s-.37.02-.58.03c-.21,0-.42.02-.64.02-.21,0-.41.01-.57.01-.36,0-.68-.05-.95-.14s-.5-.23-.68-.42-.32-.42-.41-.69c-.09-.27-.14-.59-.14-.94v-.66c0-.37.05-.68.14-.93.09-.25.22-.45.38-.61.16-.15.35-.26.56-.33.21-.07.44-.11.68-.11h1.64c-.03-.35-.21-.58-.54-.7s-.77-.18-1.34-.18c-.43,0-.79.05-1.09.15-.29.1-.53.24-.71.44-.18.19-.31.43-.4.71s-.13.6-.13.97v1.52c0,.48.07.89.2,1.24.13.35.34.63.61.85s.61.38,1.02.48c.41.1.9.15,1.45.15.49,0,.92-.04,1.31-.12.38-.08.71-.2.98-.37.27-.17.48-.38.62-.64.14-.26.21-.57.21-.92v-2.41c0-.29.04-.54.11-.77.07-.23.2-.42.38-.58.18-.16.44-.27.79-.34l.33.76c-.14.07-.25.15-.33.24ZM3.55,4.49c-.13.05-.24.14-.34.27-.1.13-.15.34-.15.62v.66c0,.43.09.73.28.9.18.17.46.26.82.26.13,0,.25,0,.36,0,.11,0,.22-.01.33-.02.11,0,.2-.01.29-.02.09,0,.16-.01.22-.02v-2.72h-1.45c-.11,0-.23.02-.36.07Z"/>
      <path class="cls-1" d="M18.75.13h1.17v8.84h-1.17v-4.1h-3.11v4.1h-1.17V.13h1.17v3.62h3.11V.13Z"/>
      <path class="cls-1" d="M28.88,4.02c-.07-.17-.17-.3-.3-.4-.13-.1-.29-.17-.49-.21s-.41-.06-.66-.06l.09-.82c.49,0,.9.04,1.23.13.33.09.6.24.81.44.21.21.36.48.45.81.09.34.14.75.14,1.25v3.8c-.09,0-.2.02-.33.04-.13.02-.27.03-.42.04s-.31.02-.47.03c-.16,0-.33.01-.49.02-.17,0-.32.01-.47.01-.38,0-.73-.03-1.05-.09-.32-.06-.61-.18-.85-.34s-.44-.39-.58-.67c-.14-.28-.21-.63-.21-1.05v-1.17c0-.33.05-.61.15-.85.1-.24.23-.43.4-.58.17-.15.36-.26.58-.33.21-.08.44-.11.67-.11s.47.03.71.09c.24.06.46.15.68.27.21.12.39.26.54.42,0-.27-.04-.49-.11-.66ZM28.55,5.35c-.18-.08-.38-.15-.6-.21-.21-.06-.43-.09-.65-.09-.1,0-.2.01-.3.04-.1.02-.19.07-.28.13-.08.06-.15.15-.2.26-.05.11-.08.25-.08.42v.86c0,.21.02.4.06.56s.12.29.23.4c.11.11.27.19.47.25s.48.08.81.08c.08,0,.17-.01.26-.02.09,0,.17-.01.26-.02.08,0,.16-.01.23-.02.07,0,.14-.01.21-.02v-2.41c-.1-.06-.24-.13-.43-.21Z"/>
      <path class="cls-1" d="M36.54.18c.13.12.19.27.19.45s-.06.33-.19.46c-.13.13-.28.19-.46.19s-.33-.06-.46-.19c-.13-.13-.19-.28-.19-.46s.06-.34.19-.45c.13-.12.28-.18.46-.18s.33.06.46.18ZM35.49,2.64h1.17v6.33h-1.17V2.64Z"/>
      <path class="cls-1" d="M45.44,4.18c-.06-.13-.14-.25-.25-.33s-.23-.16-.37-.2c-.14-.05-.28-.07-.44-.07-.13,0-.25.01-.39.04-.13.03-.26.06-.4.11-.13.05-.28.12-.43.2v5.05h-1.16V2.64h1.16v.34c.1-.07.23-.13.38-.2.15-.07.32-.13.49-.18.18-.05.36-.08.56-.08.23,0,.44.02.65.07.21.05.4.12.57.22.17.1.32.23.45.39.13.16.22.36.3.59.07.23.11.5.11.8v4.38h-1.15v-4.34c0-.17-.03-.32-.09-.46Z"/>
      <path class="cls-1" d="M53.08.18c.13.12.19.27.19.45s-.06.33-.19.46c-.13.13-.28.19-.46.19s-.33-.06-.46-.19c-.13-.13-.19-.28-.19-.46s.06-.34.19-.45c.13-.12.28-.18.46-.18s.33.06.46.18ZM52.03,2.64h1.17v6.33h-1.17V2.64Z"/>
      <path class="cls-1" d="M58.64,8.97h4.04v.88h-4.04v-.88Z"/>
      <path class="cls-1" d="M69.34,7.79c.07.13.17.23.31.29.13.06.29.11.48.13l-.34.92c-.58-.06-1.01-.24-1.3-.54s-.43-.73-.43-1.29V.13h1.17v2.53h1.31l-.29,1.07h-1.02v3.57c0,.19.04.36.11.49Z"/>
      <path class="cls-1" d="M81.8,7.08l1.26-4.43h1.25l-2.02,6.31h-1.23l-1.02-3.97-1.04,3.97h-1.24l-2.01-6.31h1.26l1.35,4.43,1.14-4.43h1.12l1.16,4.43Z"/>
    </g>
  </g>
</svg>